<svg xmlns="http://www.w3.org/2000/svg" viewBox="0 0 1600 620" role="img" aria-labelledby="title desc">
  <title id="title">WK C60HE V2 PCB back</title>
  <desc id="desc">Black 60 percent PCB back side with components, labels and connector.</desc>
  <defs>
    <linearGradient id="board" x1="0" x2="1" y1="0" y2="1"><stop offset="0" stop-color="#15140b"/><stop offset="1" stop-color="#0a0d09"/></linearGradient>
    <pattern id="lines" width="160" height="80" patternUnits="userSpaceOnUse"><path d="M0 22h120q20 0 20 20v12M26 0v36q0 18 18 18h70M0 64h58q20 0 20-20V12" fill="none" stroke="#15232c" stroke-width="3" opacity="0.55"/></pattern>
    <filter id="shadow"><feDropShadow dx="0" dy="12" stdDeviation="16" flood-color="#000" flood-opacity="0.3"/></filter>
  </defs>
  <rect width="1600" height="620" fill="#b6bec6"/>
  <rect x="16" y="18" width="1568" height="584" rx="20" fill="url(#board)" filter="url(#shadow)"/>
  <rect x="16" y="18" width="1568" height="584" rx="20" fill="url(#lines)"/>
  <g fill="#e8eef2" stroke="#9da7ae" stroke-width="3">
    <rect x="1450" y="30" width="90" height="54" rx="7"/><rect x="1464" y="78" width="62" height="22"/>
    <rect x="1330" y="250" width="80" height="80" rx="7" fill="#1e2327"/><path d="M1338 250v80M1348 250v80M1358 250v80M1368 250v80M1378 250v80M1388 250v80M1398 250v80" stroke="#c2a03a" stroke-width="4"/>
    <rect x="610" y="260" width="380" height="46" rx="6" fill="#151a19" stroke="#666"/>
  </g>
  <g fill="#e1e7ec" stroke="#7f8992" stroke-width="2">
    <rect x="82" y="92" width="30" height="16" rx="2"/><rect x="220" y="92" width="30" height="16" rx="2"/><rect x="358" y="92" width="30" height="16" rx="2"/><rect x="496" y="92" width="30" height="16" rx="2"/><rect x="634" y="92" width="30" height="16" rx="2"/><rect x="772" y="92" width="30" height="16" rx="2"/><rect x="910" y="92" width="30" height="16" rx="2"/><rect x="1048" y="92" width="30" height="16" rx="2"/><rect x="1186" y="92" width="30" height="16" rx="2"/><rect x="1324" y="92" width="30" height="16" rx="2"/>
    <rect x="112" y="212" width="30" height="16" rx="2"/><rect x="250" y="212" width="30" height="16" rx="2"/><rect x="388" y="212" width="30" height="16" rx="2"/><rect x="526" y="212" width="30" height="16" rx="2"/><rect x="664" y="212" width="30" height="16" rx="2"/><rect x="802" y="212" width="30" height="16" rx="2"/><rect x="940" y="212" width="30" height="16" rx="2"/><rect x="1078" y="212" width="30" height="16" rx="2"/><rect x="1216" y="212" width="30" height="16" rx="2"/><rect x="1354" y="212" width="30" height="16" rx="2"/>
    <rect x="142" y="332" width="30" height="16" rx="2"/><rect x="280" y="332" width="30" height="16" rx="2"/><rect x="418" y="332" width="30" height="16" rx="2"/><rect x="556" y="332" width="30" height="16" rx="2"/><rect x="694" y="332" width="30" height="16" rx="2"/><rect x="832" y="332" width="30" height="16" rx="2"/><rect x="970" y="332" width="30" height="16" rx="2"/><rect x="1108" y="332" width="30" height="16" rx="2"/><rect x="1246" y="332" width="30" height="16" rx="2"/><rect x="1384" y="332" width="30" height="16" rx="2"/>
    <rect x="82" y="452" width="30" height="16" rx="2"/><rect x="220" y="452" width="30" height="16" rx="2"/><rect x="358" y="452" width="30" height="16" rx="2"/><rect x="496" y="452" width="30" height="16" rx="2"/><rect x="634" y="452" width="30" height="16" rx="2"/><rect x="772" y="452" width="30" height="16" rx="2"/><rect x="910" y="452" width="30" height="16" rx="2"/><rect x="1048" y="452" width="30" height="16" rx="2"/><rect x="1186" y="452" width="30" height="16" rx="2"/><rect x="1324" y="452" width="30" height="16" rx="2"/>
  </g>
  <g fill="none" stroke="#d8b33c" stroke-width="6"><circle cx="48" cy="136" r="16"/><circle cx="1550" cy="136" r="16"/><circle cx="48" cy="484" r="16"/><circle cx="1550" cy="484" r="16"/><circle cx="120" cy="36" r="15"/><circle cx="1480" cy="36" r="15"/><circle cx="780" cy="136" r="17"/><circle cx="790" cy="520" r="17"/></g>
  <g fill="#aeb7bf"><circle cx="76" cy="162" r="12"/><circle cx="178" cy="162" r="12"/><circle cx="280" cy="162" r="12"/><circle cx="382" cy="162" r="12"/><circle cx="484" cy="162" r="12"/><circle cx="586" cy="162" r="12"/><circle cx="688" cy="162" r="12"/><circle cx="790" cy="162" r="12"/><circle cx="892" cy="162" r="12"/><circle cx="994" cy="162" r="12"/><circle cx="1096" cy="162" r="12"/><circle cx="1198" cy="162" r="12"/><circle cx="1300" cy="162" r="12"/><circle cx="1402" cy="162" r="12"/></g>
  <text x="86" y="148" fill="#fff" font-family="Arial, Helvetica, sans-serif" font-size="24">Model No : WK C60HE V2  |  Rating: 5V == 500mA</text>
  <text x="804" y="150" fill="#fff" font-family="Arial, Helvetica, sans-serif" font-size="28" text-anchor="middle">CE  FCC  RoHS  3C</text>
  <g transform="translate(720 498)"><rect width="170" height="48" rx="8" fill="none" stroke="#fff" stroke-width="4"/><text x="85" y="32" fill="#fff" font-family="Arial" font-size="24" font-weight="700" text-anchor="middle">WK 完客开放平台</text></g>
  <text x="1516" y="34" fill="#fff" font-family="Arial" font-size="18" text-anchor="end">High-Speed USB</text>
</svg>
