<svg xmlns="http://www.w3.org/2000/svg" viewBox="0 0 900 520" role="img" aria-labelledby="title desc">
  <title id="title">WK D60HE V2 virtual PCB</title>
  <desc id="desc">Virtual inductive PCB placeholder for not yet available product option.</desc>
  <defs><linearGradient id="g" x1="0" x2="1"><stop offset="0" stop-color="#172033"/><stop offset="1" stop-color="#0f766e"/></linearGradient></defs>
  <rect width="900" height="520" fill="#e5edf3"/>
  <rect x="42" y="74" width="816" height="330" rx="18" fill="url(#g)" stroke="#0f172a" stroke-width="8"/>
  <g fill="none" stroke="#7dd3fc" stroke-width="4" opacity="0.65"><path d="M86 150h680M86 215h680M86 280h680M86 345h680"/><path d="M130 108v260M260 108v260M390 108v260M520 108v260M650 108v260M780 108v260"/></g>
  <g fill="#f8fafc" stroke="#cbd5e1" stroke-width="3"><rect x="104" y="132" width="42" height="28" rx="5"/><rect x="228" y="132" width="42" height="28" rx="5"/><rect x="352" y="132" width="42" height="28" rx="5"/><rect x="476" y="132" width="42" height="28" rx="5"/><rect x="600" y="132" width="42" height="28" rx="5"/><rect x="724" y="132" width="42" height="28" rx="5"/><rect x="104" y="272" width="42" height="28" rx="5"/><rect x="228" y="272" width="42" height="28" rx="5"/><rect x="352" y="272" width="42" height="28" rx="5"/><rect x="476" y="272" width="42" height="28" rx="5"/><rect x="600" y="272" width="42" height="28" rx="5"/><rect x="724" y="272" width="42" height="28" rx="5"/></g>
  <text x="450" y="456" fill="#0f172a" font-family="Arial" font-size="32" font-weight="800" text-anchor="middle">WK D60HE V2 电感 PCB 概念图</text>
  <text x="450" y="492" fill="#64748b" font-family="Arial" font-size="18" text-anchor="middle">暂未开放</text>
</svg>
