<svg xmlns="http://www.w3.org/2000/svg" viewBox="0 0 900 520" role="img" aria-labelledby="title desc">
  <title id="title">WK J60HE V2 virtual PCB</title>
  <desc id="desc">Virtual inductive PCB placeholder for not yet available product option.</desc>
  <defs><linearGradient id="g" x1="0" x2="1"><stop offset="0" stop-color="#18181b"/><stop offset="1" stop-color="#334155"/></linearGradient></defs>
  <rect width="900" height="520" fill="#e5edf3"/>
  <rect x="42" y="74" width="816" height="330" rx="18" fill="url(#g)" stroke="#020617" stroke-width="8"/>
  <g fill="none" stroke="#cbd5e1" stroke-width="4" opacity="0.62"><path d="M100 142c90 0 90 60 180 60s90-60 180-60 90 60 180 60 90-60 180-60"/><path d="M100 250c90 0 90 60 180 60s90-60 180-60 90 60 180 60 90-60 180-60"/></g>
  <g fill="#facc15" opacity="0.9"><circle cx="112" cy="112" r="15"/><circle cx="788" cy="112" r="15"/><circle cx="112" cy="366" r="15"/><circle cx="788" cy="366" r="15"/></g>
  <g fill="#f8fafc" stroke="#cbd5e1" stroke-width="3"><rect x="144" y="160" width="40" height="26" rx="5"/><rect x="264" y="160" width="40" height="26" rx="5"/><rect x="384" y="160" width="40" height="26" rx="5"/><rect x="504" y="160" width="40" height="26" rx="5"/><rect x="624" y="160" width="40" height="26" rx="5"/><rect x="744" y="160" width="40" height="26" rx="5"/><rect x="204" y="300" width="40" height="26" rx="5"/><rect x="324" y="300" width="40" height="26" rx="5"/><rect x="444" y="300" width="40" height="26" rx="5"/><rect x="564" y="300" width="40" height="26" rx="5"/><rect x="684" y="300" width="40" height="26" rx="5"/></g>
  <text x="450" y="456" fill="#0f172a" font-family="Arial" font-size="32" font-weight="800" text-anchor="middle">WK J60HE V2 电感 PCB 概念图</text>
  <text x="450" y="492" fill="#64748b" font-family="Arial" font-size="18" text-anchor="middle">暂未开放</text>
</svg>
