<svg xmlns="http://www.w3.org/2000/svg" viewBox="0 0 1600 620" role="img" aria-labelledby="title desc">
  <title id="title">WK C60HE V2 PCB front</title>
  <desc id="desc">Black 60 percent PCB front side with hot-swap pads and WVKE lettering.</desc>
  <defs>
    <linearGradient id="board" x1="0" x2="1" y1="0" y2="1">
      <stop offset="0" stop-color="#17150c"/>
      <stop offset="0.58" stop-color="#10140f"/>
      <stop offset="1" stop-color="#0d0d08"/>
    </linearGradient>
    <pattern id="traces" width="120" height="120" patternUnits="userSpaceOnUse">
      <path d="M10 86h30q15 0 15-15V18M88 10v45q0 18 18 18h8M14 36h32q12 0 12 12v44M84 105h28" fill="none" stroke="#10202a" stroke-width="3" opacity="0.55"/>
      <circle cx="18" cy="18" r="3" fill="#d8b33c" opacity="0.85"/>
      <circle cx="74" cy="72" r="3" fill="#d8b33c" opacity="0.85"/>
    </pattern>
    <filter id="softShadow" x="-20%" y="-20%" width="140%" height="140%">
      <feDropShadow dx="0" dy="14" stdDeviation="18" flood-color="#000" flood-opacity="0.32"/>
    </filter>
  </defs>
  <rect width="1600" height="620" fill="#b6bec6"/>
  <rect x="12" y="18" width="1576" height="584" rx="20" fill="url(#board)" filter="url(#softShadow)"/>
  <rect x="12" y="18" width="1576" height="584" rx="20" fill="url(#traces)" opacity="0.9"/>
  <g fill="none" stroke="#d8b33c" stroke-width="6">
    <circle cx="48" cy="136" r="16"/><circle cx="1550" cy="136" r="16"/><circle cx="48" cy="484" r="16"/><circle cx="1550" cy="484" r="16"/>
    <circle cx="742" cy="142" r="14"/><circle cx="860" cy="478" r="14"/><circle cx="438" cy="548" r="13"/><circle cx="1114" cy="548" r="13"/>
  </g>
  <g id="switches">
    <g fill="#d7dde1" stroke="#87909a" stroke-width="3">
      <script type="application/ecmascript"><![CDATA[]]></script>
      <rect x="70" y="78" width="18" height="18" rx="3"/><rect x="176" y="78" width="18" height="18" rx="3"/><rect x="282" y="78" width="18" height="18" rx="3"/><rect x="388" y="78" width="18" height="18" rx="3"/><rect x="494" y="78" width="18" height="18" rx="3"/><rect x="600" y="78" width="18" height="18" rx="3"/><rect x="706" y="78" width="18" height="18" rx="3"/><rect x="812" y="78" width="18" height="18" rx="3"/><rect x="918" y="78" width="18" height="18" rx="3"/><rect x="1024" y="78" width="18" height="18" rx="3"/><rect x="1130" y="78" width="18" height="18" rx="3"/><rect x="1236" y="78" width="18" height="18" rx="3"/><rect x="1342" y="78" width="18" height="18" rx="3"/><rect x="1448" y="78" width="18" height="18" rx="3"/>
      <rect x="96" y="204" width="18" height="18" rx="3"/><rect x="202" y="204" width="18" height="18" rx="3"/><rect x="308" y="204" width="18" height="18" rx="3"/><rect x="414" y="204" width="18" height="18" rx="3"/><rect x="520" y="204" width="18" height="18" rx="3"/><rect x="626" y="204" width="18" height="18" rx="3"/><rect x="732" y="204" width="18" height="18" rx="3"/><rect x="838" y="204" width="18" height="18" rx="3"/><rect x="944" y="204" width="18" height="18" rx="3"/><rect x="1050" y="204" width="18" height="18" rx="3"/><rect x="1156" y="204" width="18" height="18" rx="3"/><rect x="1262" y="204" width="18" height="18" rx="3"/><rect x="1368" y="204" width="18" height="18" rx="3"/><rect x="1474" y="204" width="18" height="18" rx="3"/>
      <rect x="126" y="330" width="18" height="18" rx="3"/><rect x="232" y="330" width="18" height="18" rx="3"/><rect x="338" y="330" width="18" height="18" rx="3"/><rect x="444" y="330" width="18" height="18" rx="3"/><rect x="550" y="330" width="18" height="18" rx="3"/><rect x="656" y="330" width="18" height="18" rx="3"/><rect x="762" y="330" width="18" height="18" rx="3"/><rect x="868" y="330" width="18" height="18" rx="3"/><rect x="974" y="330" width="18" height="18" rx="3"/><rect x="1080" y="330" width="18" height="18" rx="3"/><rect x="1186" y="330" width="18" height="18" rx="3"/><rect x="1292" y="330" width="18" height="18" rx="3"/><rect x="1398" y="330" width="18" height="18" rx="3"/>
      <rect x="96" y="456" width="18" height="18" rx="3"/><rect x="202" y="456" width="18" height="18" rx="3"/><rect x="308" y="456" width="18" height="18" rx="3"/><rect x="414" y="456" width="18" height="18" rx="3"/><rect x="520" y="456" width="18" height="18" rx="3"/><rect x="626" y="456" width="18" height="18" rx="3"/><rect x="732" y="456" width="18" height="18" rx="3"/><rect x="838" y="456" width="18" height="18" rx="3"/><rect x="944" y="456" width="18" height="18" rx="3"/><rect x="1050" y="456" width="18" height="18" rx="3"/><rect x="1156" y="456" width="18" height="18" rx="3"/><rect x="1262" y="456" width="18" height="18" rx="3"/><rect x="1368" y="456" width="18" height="18" rx="3"/><rect x="1474" y="456" width="18" height="18" rx="3"/>
    </g>
    <g fill="#aeb7bf">
      <circle cx="58" cy="70" r="6"/><circle cx="110" cy="70" r="6"/><circle cx="164" cy="70" r="6"/><circle cx="216" cy="70" r="6"/><circle cx="270" cy="70" r="6"/><circle cx="322" cy="70" r="6"/><circle cx="376" cy="70" r="6"/><circle cx="428" cy="70" r="6"/><circle cx="482" cy="70" r="6"/><circle cx="534" cy="70" r="6"/><circle cx="588" cy="70" r="6"/><circle cx="640" cy="70" r="6"/><circle cx="694" cy="70" r="6"/><circle cx="746" cy="70" r="6"/><circle cx="800" cy="70" r="6"/><circle cx="852" cy="70" r="6"/><circle cx="906" cy="70" r="6"/><circle cx="958" cy="70" r="6"/><circle cx="1012" cy="70" r="6"/><circle cx="1064" cy="70" r="6"/><circle cx="1118" cy="70" r="6"/><circle cx="1170" cy="70" r="6"/><circle cx="1224" cy="70" r="6"/><circle cx="1276" cy="70" r="6"/><circle cx="1330" cy="70" r="6"/><circle cx="1382" cy="70" r="6"/><circle cx="1436" cy="70" r="6"/><circle cx="1488" cy="70" r="6"/>
      <circle cx="58" cy="540" r="6"/><circle cx="210" cy="540" r="6"/><circle cx="362" cy="540" r="6"/><circle cx="514" cy="540" r="6"/><circle cx="666" cy="540" r="6"/><circle cx="818" cy="540" r="6"/><circle cx="970" cy="540" r="6"/><circle cx="1122" cy="540" r="6"/><circle cx="1274" cy="540" r="6"/><circle cx="1426" cy="540" r="6"/>
    </g>
  </g>
  <g font-family="Arial, Helvetica, sans-serif" text-anchor="middle" fill="#fff">
    <text x="805" y="284" font-size="132" font-weight="900" letter-spacing="8">完客 · 完美客制</text>
    <text x="805" y="372" font-size="38" font-weight="800">WK C60HE V2 磁轴 PCB 内胆模块</text>
  </g>
  <g transform="translate(1420 46)">
    <rect width="90" height="48" rx="7" fill="#eef2f4" stroke="#b8c0c8" stroke-width="4"/>
    <rect x="10" y="42" width="70" height="20" fill="#cfd7de"/>
    <text x="-16" y="31" fill="#fff" font-size="18" font-family="Arial" text-anchor="end">High-Speed USB</text>
  </g>
</svg>
