<svg xmlns="http://www.w3.org/2000/svg" viewBox="0 0 1600 520" role="img" aria-labelledby="title desc">
  <title id="title">WK C60HE V2 PCB front</title>
  <desc id="desc">Front view illustration of a black 60 percent keyboard PCB module with switch sockets, gold pads, and white WK lettering.</desc>
  <defs>
    <linearGradient id="board" x1="0" x2="1" y1="0" y2="1">
      <stop offset="0" stop-color="#15170f"/>
      <stop offset="0.55" stop-color="#090c08"/>
      <stop offset="1" stop-color="#1a211d"/>
    </linearGradient>
    <pattern id="traces" width="88" height="88" patternUnits="userSpaceOnUse">
      <path d="M8 16h38v20h32M12 58h28v-18h40" fill="none" stroke="#213032" stroke-width="2" opacity="0.45"/>
      <path d="M58 10v34M70 44h12" fill="none" stroke="#111b20" stroke-width="2" opacity="0.65"/>
    </pattern>
    <filter id="shadow" x="-10%" y="-10%" width="120%" height="120%">
      <feDropShadow dx="0" dy="10" stdDeviation="12" flood-color="#000" flood-opacity="0.35"/>
    </filter>
  </defs>
  <rect width="1600" height="520" fill="#b7c0c4"/>
  <rect x="6" y="14" width="1588" height="492" rx="22" fill="url(#board)" filter="url(#shadow)"/>
  <rect x="6" y="14" width="1588" height="492" rx="22" fill="url(#traces)" opacity="0.65"/>
  <g opacity="0.98">
    <g fill="#d7b742" stroke="#f7e38c" stroke-width="2">
      <circle cx="24" cy="116" r="13"/><circle cx="1568" cy="122" r="13"/><circle cx="742" cy="494" r="12"/><circle cx="431" cy="494" r="12"/><circle cx="1260" cy="453" r="12"/><circle cx="70" cy="451" r="12"/><rect x="119" y="144" width="42" height="22" rx="11"/><rect x="691" y="248" width="52" height="22" rx="11"/><rect x="1062" y="447" width="54" height="22" rx="11"/><rect x="1539" y="296" width="48" height="22" rx="11"/>
    </g>
    <g fill="#b9c2c8">
      <circle cx="46" cy="46" r="6"/><circle cx="122" cy="46" r="6"/><circle cx="236" cy="46" r="6"/><circle cx="350" cy="46" r="6"/><circle cx="464" cy="46" r="6"/><circle cx="578" cy="46" r="6"/><circle cx="692" cy="46" r="6"/><circle cx="806" cy="46" r="6"/><circle cx="920" cy="46" r="6"/><circle cx="1034" cy="46" r="6"/><circle cx="1148" cy="46" r="6"/><circle cx="1262" cy="46" r="6"/><circle cx="1376" cy="46" r="6"/><circle cx="1490" cy="46" r="6"/>
      <circle cx="60" cy="382" r="10"/><circle cx="180" cy="384" r="10"/><circle cx="570" cy="384" r="10"/><circle cx="882" cy="384" r="10"/><circle cx="1390" cy="384" r="10"/><circle cx="1530" cy="384" r="10"/>
    </g>
  </g>
  <g id="switches" transform="translate(48 72)">
    <script type="application/ecmascript"><![CDATA[]]></script>
    <g fill="#f6f7f8" stroke="#9aa0a6" stroke-width="2">
      <rect x="0" y="0" width="26" height="26" rx="4"/><rect x="106" y="0" width="26" height="26" rx="4"/><rect x="212" y="0" width="26" height="26" rx="4"/><rect x="318" y="0" width="26" height="26" rx="4"/><rect x="424" y="0" width="26" height="26" rx="4"/><rect x="530" y="0" width="26" height="26" rx="4"/><rect x="636" y="0" width="26" height="26" rx="4"/><rect x="742" y="0" width="26" height="26" rx="4"/><rect x="848" y="0" width="26" height="26" rx="4"/><rect x="954" y="0" width="26" height="26" rx="4"/><rect x="1060" y="0" width="26" height="26" rx="4"/><rect x="1166" y="0" width="26" height="26" rx="4"/><rect x="1272" y="0" width="26" height="26" rx="4"/><rect x="1378" y="0" width="26" height="26" rx="4"/>
      <rect x="26" y="110" width="26" height="26" rx="4"/><rect x="132" y="110" width="26" height="26" rx="4"/><rect x="238" y="110" width="26" height="26" rx="4"/><rect x="344" y="110" width="26" height="26" rx="4"/><rect x="450" y="110" width="26" height="26" rx="4"/><rect x="556" y="110" width="26" height="26" rx="4"/><rect x="662" y="110" width="26" height="26" rx="4"/><rect x="768" y="110" width="26" height="26" rx="4"/><rect x="874" y="110" width="26" height="26" rx="4"/><rect x="980" y="110" width="26" height="26" rx="4"/><rect x="1086" y="110" width="26" height="26" rx="4"/><rect x="1192" y="110" width="26" height="26" rx="4"/><rect x="1298" y="110" width="26" height="26" rx="4"/>
      <rect x="52" y="220" width="26" height="26" rx="4"/><rect x="158" y="220" width="26" height="26" rx="4"/><rect x="264" y="220" width="26" height="26" rx="4"/><rect x="370" y="220" width="26" height="26" rx="4"/><rect x="476" y="220" width="26" height="26" rx="4"/><rect x="582" y="220" width="26" height="26" rx="4"/><rect x="688" y="220" width="26" height="26" rx="4"/><rect x="794" y="220" width="26" height="26" rx="4"/><rect x="900" y="220" width="26" height="26" rx="4"/><rect x="1006" y="220" width="26" height="26" rx="4"/><rect x="1112" y="220" width="26" height="26" rx="4"/><rect x="1218" y="220" width="26" height="26" rx="4"/>
      <rect x="78" y="330" width="26" height="26" rx="4"/><rect x="184" y="330" width="26" height="26" rx="4"/><rect x="290" y="330" width="26" height="26" rx="4"/><rect x="476" y="330" width="26" height="26" rx="4"/><rect x="662" y="330" width="26" height="26" rx="4"/><rect x="848" y="330" width="26" height="26" rx="4"/><rect x="1034" y="330" width="26" height="26" rx="4"/><rect x="1220" y="330" width="26" height="26" rx="4"/><rect x="1406" y="330" width="26" height="26" rx="4"/>
    </g>
    <g fill="none" stroke="#c69f2c" stroke-width="3" opacity="0.9">
      <path d="M-22 86h42M106 86h42M424 86h42M744 86h42M1062 86h42M1378 86h42"/>
      <path d="M212 306h64M950 306h64M1290 306h64"/>
    </g>
  </g>
  <g fill="#fff" font-family="Arial, 'Microsoft YaHei', sans-serif" font-weight="800" text-anchor="middle">
    <text x="560" y="226" font-size="116">完客</text>
    <text x="800" y="226" font-size="72">·</text>
    <text x="1112" y="226" font-size="116">完美客制</text>
    <text x="800" y="306" font-size="42">好用、好玩、有趣！</text>
    <path d="M612 322h376" stroke="#fff" stroke-width="3"/>
  </g>
</svg>
